<svg xmlns="http://www.w3.org/2000/svg" xmlns:xlink="http://www.w3.org/1999/xlink" width="52" height="52" viewBox="0 0 52 52">
  <defs>
    <style>
      .cls-1, .cls-3 {
        fill: #7e7e7e;
      }

      .cls-1 {
        stroke: #707070;
      }

      .cls-2 {
        clip-path: url(#clip-path);
      }
    </style>
    <clipPath id="clip-path">
      <rect id="Rectangle_30" data-name="Rectangle 30" class="cls-1" width="52" height="52" transform="translate(179 2062)"/>
    </clipPath>
  </defs>
  <g id="Mask_Group_2" data-name="Mask Group 2" class="cls-2" transform="translate(-179 -2062)">
    <g id="msegslogo_2" data-name="msegslogo 2" transform="translate(179 2065.423)">
      <g id="Group_53" data-name="Group 53" transform="translate(6.117 0)">
        <path id="Path_200" data-name="Path 200" class="cls-3" d="M42.8,12.265H38.215a12.913,12.913,0,0,0-18.638-1.458c-.025.025-.05.042-.075.067a1,1,0,0,0-.1.092,13.026,13.026,0,0,0-3.05,4.249,13.313,13.313,0,0,0-.888,2.858,12.614,12.614,0,0,0-.21,2.33.57.57,0,0,1,.017.126l.017.494a11.807,11.807,0,0,0,.235,1.986h.008l.025.008A12.391,12.391,0,0,0,16.51,25.9l-.025-.008a12.927,12.927,0,0,0,6.042,6.168,12.729,12.729,0,0,0,4.835,1.282l1.408,3.847-.5.017c-.536,0-1.048-.025-1.542-.067A16.757,16.757,0,0,1,11.49,21.332a.509.509,0,0,1-.034-.142l-.025-.67a16.7,16.7,0,0,1,3.151-9.847c.168-.21.335-.436.5-.662A16.776,16.776,0,0,1,27.4,3.725c.025-.008.05-.008.075-.017.1,0,.2-.008.3-.017h.377A16.678,16.678,0,0,1,42.8,12.265Z" transform="translate(-11.431 -3.692)"/>
        <path id="Path_201" data-name="Path 201" class="cls-3" d="M37.408,44.388V41.43a.486.486,0,0,1,.486-.486h9.16a.486.486,0,0,1,.486.486v2.958a.486.486,0,0,1-.486.486H37.9A.483.483,0,0,1,37.408,44.388Z" transform="translate(-17.831 -12.87)"/>
        <path id="Path_202" data-name="Path 202" class="cls-3" d="M49.892,18.237H31.2a1.84,1.84,0,0,0-1.835,1.835v12.47a.64.64,0,0,0,.645.645H51.182a.477.477,0,0,0,.478-.478V20A1.778,1.778,0,0,0,49.892,18.237ZM47.721,28.788a.47.47,0,0,1-.478.469H33.751a.463.463,0,0,1-.469-.469V22.645a.47.47,0,0,1,.469-.478H47.235a.477.477,0,0,1,.478.478l.008,6.143Z" transform="translate(-15.85 -7.275)"/>
      </g>
      <g id="Group_54" data-name="Group 54" transform="translate(0 35.047)">
        <path id="Path_203" data-name="Path 203" class="cls-3" d="M3.314,50.385H6.146l2.766,6.822,2.74-6.822h2.824V60.24H12.071V54.332l-2.2,5.908H7.931L5.711,54.315V60.24h-2.4Z" transform="translate(-3.314 -50.243)"/>
        <path id="Path_204" data-name="Path 204" class="cls-3" d="M23.874,60.286c-2.112,0-3.78-1.056-3.847-3.042h2.556a1.134,1.134,0,0,0,1.224,1.123c.7,0,1.148-.352,1.148-.93,0-1.827-4.928-.838-4.894-4.333,0-1.869,1.534-2.908,3.6-2.908,2.145,0,3.6,1.073,3.687,2.95h-2.6a1.063,1.063,0,0,0-1.131-1.022.871.871,0,0,0-1.014.9c0,1.71,4.869.939,4.869,4.24C27.469,58.912,26.178,60.286,23.874,60.286Z" transform="translate(-7.432 -50.196)"/>
        <path id="Path_205" data-name="Path 205" class="cls-3" d="M35.189,60.977a4.023,4.023,0,0,1,0-8.045,3.7,3.7,0,0,1,3.905,3.905,6.881,6.881,0,0,1-.042.7h-5.43a1.453,1.453,0,0,0,1.483,1.5,1.269,1.269,0,0,0,1.249-.763H38.91A3.678,3.678,0,0,1,35.189,60.977ZM33.63,56.191h3a1.355,1.355,0,0,0-1.475-1.349A1.481,1.481,0,0,0,33.63,56.191Z" transform="translate(-10.19 -50.87)"/>
        <path id="Path_206" data-name="Path 206" class="cls-3" d="M52.4,53.456H49.751a2.066,2.066,0,0,0-1.936-1.014,2.536,2.536,0,0,0-2.573,2.807,2.6,2.6,0,0,0,2.766,2.891A2.365,2.365,0,0,0,50.4,56.4H47.354V54.629h5.221v2.238a5.016,5.016,0,1,1-4.752-6.637A4.372,4.372,0,0,1,52.4,53.456Z" transform="translate(-13.045 -50.204)"/>
        <path id="Path_207" data-name="Path 207" class="cls-3" d="M60.993,60.286c-2.112,0-3.78-1.056-3.847-3.042H59.7a1.134,1.134,0,0,0,1.224,1.123c.7,0,1.148-.352,1.148-.93,0-1.827-4.928-.838-4.894-4.333,0-1.869,1.534-2.908,3.6-2.908,2.145,0,3.6,1.073,3.687,2.95h-2.6a1.063,1.063,0,0,0-1.131-1.022.871.871,0,0,0-1.014.9c0,1.71,4.869.939,4.869,4.24C64.588,58.912,63.289,60.286,60.993,60.286Z" transform="translate(-16.577 -50.196)"/>
      </g>
      <g id="Group_55" data-name="Group 55" transform="translate(48.43 35.047)">
        <path id="Path_208" data-name="Path 208" class="cls-3" d="M67.577,50.2H68.9v.293h-.478v1.517h-.36V50.489h-.478V50.2Z" transform="translate(-67.577 -50.196)"/>
        <path id="Path_209" data-name="Path 209" class="cls-3" d="M69.689,50.2H70.1l.578,1.341.578-1.341h.411v1.81h-.36V50.833l-.486,1.173h-.277l-.486-1.173v1.173H69.7V50.2Z" transform="translate(-68.097 -50.196)"/>
      </g>
    </g>
  </g>
</svg>
